<svg width="41" height="41" viewBox="0 0 41 41" fill="none" xmlns="http://www.w3.org/2000/svg">
<path d="M7.57837 16.8335V26.3242C7.57837 27.8584 8.82202 29.102 10.3561 29.102H29.8006C31.3347 29.102 32.5784 27.8584 32.5784 26.3242V16.8335C32.5784 15.2994 31.3347 14.0557 29.8006 14.0557H28.3507C27.8169 14.0557 27.3091 13.8254 26.9575 13.4239L25.0236 11.2154C24.6719 10.8138 24.1641 10.5835 23.6304 10.5835H16.1885C15.6548 10.5835 15.147 10.8138 14.7953 11.2154L12.8614 13.4239C12.5098 13.8254 12.002 14.0557 11.4682 14.0557H10.3561C8.82202 14.0557 7.57837 15.2994 7.57837 16.8335Z" stroke="#898989" stroke-width="2" stroke-linecap="round" stroke-linejoin="round"/>
<circle cx="20.0784" cy="20.3058" r="4.16667" stroke="#898989" stroke-width="2"/>
</svg>
