<svg width="24" height="20" viewBox="0 0 24 20" fill="none" xmlns="http://www.w3.org/2000/svg">
<path d="M13.7395 2.49237L11.8757 4.29832L10.0118 2.49237C8.05746 0.598701 4.92232 0.703257 3.09846 2.72293C1.3287 4.68271 1.08505 7.61812 2.68761 9.71682C2.88454 9.97472 3.07818 10.2217 3.26246 10.4478C4.4289 11.8787 6.97391 14.3777 8.24905 15.7188C9.19114 16.7096 10.038 17.5359 10.6759 18.1378C11.3497 18.7734 12.3896 18.7595 13.0646 18.1253C14.241 17.0199 16.0449 15.2982 17.3156 13.9618C18.5907 12.6207 19.3224 11.8787 20.4889 10.4478C20.6731 10.2217 20.8668 9.97472 21.0637 9.71682C22.6663 7.61812 22.4226 4.68271 20.6529 2.72293C18.829 0.703257 15.6939 0.5987 13.7395 2.49237Z" stroke="#898989" stroke-width="2.02054" stroke-linecap="round" stroke-linejoin="round"/>
</svg>
