<svg width="41" height="41" viewBox="0 0 41 41" fill="none" xmlns="http://www.w3.org/2000/svg">
<path d="M23.6001 13.4706C23.6001 15.3305 22.0924 16.8382 20.2326 16.8382C18.3727 16.8382 16.865 15.3305 16.865 13.4706C16.865 11.6107 18.3727 10.103 20.2326 10.103C22.0924 10.103 23.6001 11.6107 23.6001 13.4706Z" fill="#898989" stroke="#898989" stroke-width="2.02054"/>
<path d="M13.3133 22.5734L14.0631 22.0736C15.8901 20.8555 18.0368 20.2056 20.2326 20.2056C22.4285 20.2056 24.5752 20.8555 26.4022 22.0736L27.152 22.5734C28.0888 23.198 28.6516 24.2494 28.6516 25.3754V27.053C28.6516 27.9209 27.948 28.6245 27.08 28.6245H20.2326H13.3853C12.5173 28.6245 11.8137 27.9209 11.8137 27.053V25.3754C11.8137 24.2494 12.3764 23.198 13.3133 22.5734Z" fill="#898989" stroke="#898989" stroke-width="2.02054" stroke-linecap="round" stroke-linejoin="round"/>
</svg>
