<svg width="26" height="26" viewBox="0 0 26 26" fill="none" xmlns="http://www.w3.org/2000/svg">
<mask id="path-1-inside-1_261_21224" fill="white">
<path d="M9.91011 19.3417C9.51959 19.7322 8.88642 19.7322 8.4959 19.3417L6.37458 17.2204C5.98405 16.8299 5.98405 16.1967 6.37458 15.8062L20.1632 2.01761C21.1395 1.04129 22.7224 1.04129 23.6987 2.01761V2.01761C24.675 2.99392 24.675 4.57683 23.6987 5.55314L9.91011 19.3417Z"/>
</mask>
<path d="M9.91011 19.3417C9.51959 19.7322 8.88642 19.7322 8.4959 19.3417L6.37458 17.2204C5.98405 16.8299 5.98405 16.1967 6.37458 15.8062L20.1632 2.01761C21.1395 1.04129 22.7224 1.04129 23.6987 2.01761V2.01761C24.675 2.99392 24.675 4.57683 23.6987 5.55314L9.91011 19.3417Z" stroke="#898989" stroke-width="4" mask="url(#path-1-inside-1_261_21224)"/>
<path d="M3.04361 23.338L7.85469 21.0591C8.16717 20.911 8.23869 20.4981 7.9942 20.2536L5.46205 17.7215C5.21756 17.477 4.80465 17.5485 4.65663 17.861L2.3777 22.6721C2.17658 23.0967 2.61902 23.5391 3.04361 23.338Z" stroke="#898989" stroke-width="2" stroke-linecap="round"/>
</svg>
