<svg width="25" height="25" viewBox="0 0 25 25" fill="none" xmlns="http://www.w3.org/2000/svg">
<path d="M14.9406 1.23779H10.7078C10.4257 1.23779 10.1811 1.32946 9.97417 1.51279C9.76724 1.69613 9.64496 1.92529 9.60733 2.20029L9.26872 4.75779C9.02416 4.84946 8.7939 4.95946 8.57793 5.08779C8.36121 5.21613 8.14939 5.35363 7.94246 5.50029L5.48747 4.51029C5.22409 4.41863 4.96072 4.40946 4.69735 4.48279C4.43398 4.55613 4.22705 4.71196 4.07655 4.95029L1.9884 8.49779C1.8379 8.73613 1.79087 8.99279 1.84731 9.26779C1.90374 9.54279 2.04483 9.76279 2.27058 9.92779L4.38695 11.4953C4.36814 11.6236 4.35873 11.7476 4.35873 11.8671V12.6096C4.35873 12.7284 4.36814 12.852 4.38695 12.9803L2.27058 14.5478C2.04483 14.7128 1.90374 14.9328 1.84731 15.2078C1.79087 15.4828 1.8379 15.7395 1.9884 15.9778L4.07655 19.5253C4.20824 19.782 4.41028 19.9426 4.68268 20.0071C4.95583 20.0709 5.22409 20.057 5.48747 19.9653L7.94246 18.9753C8.14939 19.122 8.36573 19.2595 8.59148 19.3878C8.81722 19.5161 9.04297 19.6261 9.26872 19.7178L9.60733 22.2753C9.64496 22.5503 9.76724 22.7795 9.97417 22.9628C10.1811 23.1461 10.4257 23.2378 10.7078 23.2378H14.9406C15.2228 23.2378 15.4673 23.1461 15.6743 22.9628C15.8812 22.7795 16.0035 22.5503 16.0411 22.2753L16.3797 19.7178C16.6243 19.6261 16.8549 19.5161 17.0716 19.3878C17.2876 19.2595 17.499 19.122 17.706 18.9753L20.161 19.9653C20.4243 20.057 20.6877 20.0661 20.9511 19.9928C21.2145 19.9195 21.4214 19.7636 21.5719 19.5253L23.66 15.9778C23.8105 15.7395 23.8576 15.4828 23.8011 15.2078C23.7447 14.9328 23.6036 14.7128 23.3779 14.5478L21.2615 12.9803C21.2803 12.852 21.2897 12.7284 21.2897 12.6096V11.8671C21.2897 11.7476 21.2709 11.6236 21.2333 11.4953L23.3496 9.92779C23.5754 9.76279 23.7165 9.54279 23.7729 9.26779C23.8294 8.99279 23.7823 8.73613 23.6318 8.49779L21.5437 4.97779C21.3932 4.73946 21.1817 4.57886 20.9093 4.49599C20.6362 4.41386 20.3679 4.41863 20.1045 4.51029L17.706 5.50029C17.499 5.35363 17.2827 5.21613 17.057 5.08779C16.8312 4.95946 16.6055 4.84946 16.3797 4.75779L16.0411 2.20029C16.0035 1.92529 15.8812 1.69613 15.6743 1.51279C15.4673 1.32946 15.2228 1.23779 14.9406 1.23779Z" stroke="#898989" stroke-width="2"/>
<circle cx="3.34783" cy="3.34783" r="3.34783" transform="matrix(1 0 0 -1 9.47632 15.5854)" stroke="#898989" stroke-width="2"/>
</svg>
